<svg width="48" height="48" viewBox="0 0 48 48" fill="none" xmlns="http://www.w3.org/2000/svg">
<path fill-rule="evenodd" clip-rule="evenodd" d="M31.8529 23.6529C31.8094 23.9311 31.7036 24.1959 31.5433 24.4275C31.383 24.659 31.1724 24.8512 30.9273 24.9898C30.4337 25.3086 30.0018 25.468 29.5647 25.6274C28.634 25.9488 27.6545 26.2702 26.6184 26.643C25.5257 27.0157 24.5462 27.3885 23.672 27.6585C22.5819 28.0313 21.5458 28.3526 20.5612 28.7254C19.8203 29.0425 19.1245 29.4556 18.4915 29.9544C17.9029 30.4877 17.3891 31.0983 16.9644 31.7695C16.5273 32.515 16.2522 33.4766 16.2522 34.5975C16.2522 36.842 16.7973 38.5491 17.8899 39.6161C18.98 40.7396 21.0008 41.2718 23.996 41.2718C27.0503 41.2718 29.1225 40.6856 30.2177 39.5107C31.3052 38.3357 31.8503 36.6826 31.8503 34.5487V23.6529H31.8529ZM23.9985 0C29.3462 0 33.272 1.01553 35.7787 3.09802C38.288 5.12908 39.5426 7.74119 39.5426 10.8366V37.2148C39.5426 38.2817 39.3267 39.4567 38.9462 40.737C38.5605 42.0225 37.7995 43.1949 36.5989 44.2592C35.4548 45.3313 33.8736 46.2389 31.8554 46.933C29.8372 47.6272 27.22 48 24.0011 48C20.7874 48 18.165 47.6272 16.1494 46.933C14.1337 46.2389 12.55 45.3313 11.4059 44.2592C10.3416 43.3001 9.53537 42.089 9.06121 40.737C8.67556 39.4592 8.45703 38.2843 8.45703 37.2174V33.001C8.45703 30.7565 9.05607 28.674 10.2567 26.8563C11.4574 24.9898 13.1465 23.7095 15.3292 22.9073C16.4193 22.5345 17.674 22.1618 19.0906 21.681C20.5097 21.1976 21.8158 20.7169 23.127 20.2927C24.4382 19.8633 25.5823 19.434 26.5618 19.0586C27.1529 18.8221 27.7533 18.6094 28.3615 18.421L29.3436 17.9402C29.7292 17.7268 30.1072 17.4055 30.4902 16.9787C30.8707 16.5545 31.1973 16.0737 31.4723 15.5389C31.763 14.9599 31.9128 14.3203 31.9094 13.6724V11.9627C31.9134 11.3361 31.7819 10.716 31.5238 10.145C31.3078 9.5023 30.8707 8.91612 30.2717 8.38393C29.6727 7.84917 28.8525 7.42239 27.873 7.09845C26.8909 6.78222 25.5848 6.62025 24.1091 6.62025C21.0548 6.62025 19.0366 7.21157 17.9465 8.43535C17.0209 9.50488 16.4759 10.8392 16.3679 12.3329C16.3679 12.6543 16.0954 12.8677 15.7663 12.8677L9.1152 12.9757C8.95721 12.9764 8.80534 12.9146 8.69266 12.8039C8.57999 12.6931 8.51563 12.5423 8.51359 12.3844V10.8418C8.51359 9.3429 8.78869 7.95458 9.38772 6.62025C9.98933 5.28334 10.9174 4.16497 12.1695 3.20086C13.4241 2.24189 15.0619 1.44231 17.0235 0.907552C18.9337 0.26481 21.2785 0 24.0037 0H23.9985Z" fill="#ECA51F"/>
</svg>
