<svg width="628" height="469" viewBox="0 0 628 469" fill="none" xmlns="http://www.w3.org/2000/svg">
<path d="M85.9399 52.88L563.85 53.36V436.46H96.7199L85.9399 52.88Z" fill="#F5F5F5"/>
<path d="M85.4199 53L80.4199 70.67V85.82C80.4199 85.82 79.7899 87.71 80.4199 93.39L80.9999 99L82.7599 109.1V114.78L80.0899 122.98L75.9999 129.94L71.5799 142.56V161.49L68.4199 171.59L61.4399 176V184.83L65.2299 196.83L67.1199 205.67L69.6399 211.35L73.4299 215.42V227.12C73.4299 227.12 69.0099 226.49 69.0099 234.07V241.64L57.6499 251.11V281.4L62.0699 294L77.8499 306V322.4L75.3199 328.72L67.7499 342L69.0099 349.57C69.0099 349.57 74.0599 358.41 74.6899 362.82C75.3199 367.23 74.6899 362.19 75.3199 367.24C75.9499 372.29 85.4199 381.75 85.4199 381.75L93.6199 394.38V436.07H101.2L101.25 53.31L85.4199 53Z" fill="white"/>
<path d="M91.3899 53L86.3899 70.58V85.73C86.3899 85.73 85.7599 87.62 86.3899 93.3L86.9999 99L88.7499 109.1V114.78L86.0899 122.98L81.9999 129.94L77.5799 142.56V161.49L74.4299 171.59L67.4399 176V184.83L71.2199 196.83L73.1199 205.67L75.6399 211.35L79.4299 215.42V227.12C79.4299 227.12 75.0099 226.49 75.0099 234.07V241.64L63.6499 251.11V281.4L68.0699 294L83.8399 306V322.4L81.3199 328.72L73.7499 342L75.0099 349.57C75.0099 349.57 80.0599 358.41 80.6899 362.82C81.3199 367.23 80.6899 362.19 81.3199 367.24C81.9499 372.29 91.4199 381.75 91.4199 381.75L99.6199 394.38V436.07H107.19V53.36L91.3899 53Z" fill="#F5F5F5"/>
<path d="M124.52 436.05C124.38 436.05 124.26 350.28 124.26 244.51C124.26 138.74 124.38 53 124.52 53C124.66 53 124.78 138.75 124.78 244.56C124.78 350.37 124.67 436.05 124.52 436.05Z" fill="#EE8421"/>
<path d="M560.76 372.68C560.76 372.82 454.69 372.94 323.89 372.94C193.09 372.94 86.9897 372.82 86.9897 372.68C86.9897 372.54 192.99 372.42 323.89 372.42C454.79 372.42 560.76 372.53 560.76 372.68Z" fill="#E0E0E0"/>
<path d="M560 394C560 394.14 456.94 394.33 329.83 394.42C202.72 394.51 99.6396 394.47 99.6396 394.33C99.6396 394.19 202.64 393.99 329.83 393.9C457.02 393.81 560 393.89 560 394Z" fill="#E0E0E0"/>
<path d="M560 415.4C560 415.54 457.29 415.66 330.62 415.66C203.95 415.66 101.22 415.54 101.22 415.4C101.22 415.26 203.91 415.13 330.62 415.13C457.33 415.13 560 415.25 560 415.4Z" fill="#E0E0E0"/>
<path d="M560 348.3C560 348.45 452.42 348.56 319.73 348.56C187.04 348.56 79.4497 348.45 79.4497 348.3C79.4497 348.15 187 348 319.71 348C452.42 348 560 348.16 560 348.3Z" fill="#E0E0E0"/>
<path d="M561.83 323.93C561.83 324.07 454.83 323.85 322.83 323.43C190.83 323.01 83.8301 322.56 83.8301 322.43C83.8301 322.3 190.83 322.51 322.83 322.93C454.83 323.35 561.83 323.79 561.83 323.93Z" fill="#E0E0E0"/>
<path d="M551.05 299.56C551.05 299.7 445.95 299.82 316.35 299.82C186.75 299.82 81.6299 299.7 81.6299 299.56C81.6299 299.42 186.7 299.3 316.35 299.3C446 299.3 551.05 299.41 551.05 299.56Z" fill="#E0E0E0"/>
<path d="M551 275.19C551 275.33 441.89 275.28 307.32 275.08C172.75 274.88 63.6099 274.6 63.6099 274.45C63.6099 274.3 172.7 274.36 307.32 274.56C441.94 274.76 551 275 551 275.19Z" fill="#E0E0E0"/>
<path d="M551.05 250.81C551.05 250.96 441.93 251.14 307.36 251.22C172.79 251.3 63.6499 251.22 63.6499 251.11C63.6499 251 172.74 250.78 307.36 250.7C441.98 250.62 551.05 250.67 551.05 250.81Z" fill="#E0E0E0"/>
<path d="M551.05 226.44C551.05 226.58 445.95 226.7 316.35 226.7C186.75 226.7 81.6299 226.58 81.6299 226.44C81.6299 226.3 186.7 226.18 316.35 226.18C446 226.18 551.05 226.3 551.05 226.44Z" fill="#E0E0E0"/>
<path d="M551.05 202.07C551.05 202.21 445.95 202.33 316.35 202.33C186.75 202.33 81.6299 202.21 81.6299 202.07C81.6299 201.93 186.7 201.81 316.35 201.81C446 201.81 551.05 201.92 551.05 202.07Z" fill="#E0E0E0"/>
<path d="M551.05 177.69C551.05 177.84 444.15 177.95 312.33 177.95C180.51 177.95 73.5898 177.84 73.5898 177.69C73.5898 177.54 180.46 177.43 312.33 177.43C444.2 177.43 551.05 177.55 551.05 177.69Z" fill="#E0E0E0"/>
<path d="M551.05 153.32C551.05 153.47 445.95 153.58 316.35 153.58C186.75 153.58 81.6299 153.47 81.6299 153.32C81.6299 153.17 186.7 153.06 316.35 153.06C446 153.06 551.05 153.18 551.05 153.32Z" fill="#E0E0E0"/>
<path d="M551.05 129C551.05 129.14 447.5 129.26 319.79 129.26C192.08 129.26 88.5098 129.14 88.5098 129C88.5098 128.86 192.04 128.74 319.79 128.74C447.54 128.74 551.05 128.8 551.05 129Z" fill="#E0E0E0"/>
<path d="M551.05 104.58C551.05 104.72 448.46 104.84 321.95 104.84C195.44 104.84 92.8398 104.72 92.8398 104.58C92.8398 104.44 195.4 104.32 321.95 104.32C448.5 104.32 551.05 104.43 551.05 104.58Z" fill="#E0E0E0"/>
<path d="M101.25 52.88L563.9 53.06H564.13V53.29C564.13 166.57 564.13 297.29 564.13 436.39V436.65H533.89H96.7599H96.5399V436.43C96.5399 436.29 96.5399 436.15 96.5399 436.02L96.7599 436.24H93.4599V436C93.4599 421.61 93.4599 407.78 93.4599 394.31V394.43L85.2599 381.81C83.0108 379.536 80.913 377.118 78.9799 374.57C78.0226 373.321 77.157 372.004 76.3899 370.63C75.9973 369.942 75.6628 369.223 75.3899 368.48C75.1546 367.733 75.0036 366.961 74.9399 366.18L74.8999 365V364.72C74.8999 364.72 74.8499 364.64 74.8999 364.8C75.6199 364.61 75.1099 364.73 75.2599 364.67V364.76C75.2599 364.64 75.2599 365.07 74.8699 364.82C74.8699 364.75 74.8699 364.75 74.8699 364.73V364.58L74.7799 364.01C74.6699 363.25 74.5699 362.5 74.3999 361.78C74.0178 360.33 73.523 358.913 72.9199 357.54C71.7303 354.804 70.3951 352.133 68.9199 349.54V349.47C68.4699 346.76 68.0599 344.32 67.6599 341.9V341.83V341.77C70.3799 337.02 72.8199 332.77 75.2399 328.52L77.7599 322.21V305.94L77.8399 306.09L62.0699 294.09H62.0199V294.04L57.6099 281.41V281.35C57.6099 270.3 57.6099 260.52 57.6099 251.06V251L57.6699 250.95L68.9999 241.44L68.9399 241.57C68.9399 238.4 68.9399 235.5 68.9399 232.71C68.9969 231.322 69.3843 229.968 70.0699 228.76C70.4111 228.16 70.9129 227.667 71.5188 227.337C72.1247 227.007 72.8108 226.852 73.4999 226.89L73.3199 227.05V215.35V215.46L69.5399 211.38L66.9999 205.66C66.2699 202.24 65.6799 199.51 65.1099 196.82L61.3299 184.82V175.82H61.3899L68.3899 171.41L68.3299 171.48L71.4899 161.38C71.4899 153.78 71.4899 147.99 71.4899 142.45C73.3199 137.25 74.6399 133.45 75.9199 129.83L80.0599 122.89C81.1999 119.39 81.9699 117 82.7299 114.68C82.7299 112.22 82.7299 110.6 82.7299 109.01C82.2899 106.49 81.8899 104.16 81.5099 102.01C81.3299 100.92 81.1499 99.88 80.9699 98.87C80.7899 97.86 80.7499 96.87 80.6499 95.87C80.2499 92.08 79.7499 88.72 80.3599 85.58C80.3599 78.52 80.3599 74.28 80.3599 70.43L85.4199 52.77H101.2L85.4199 52.82C84.2899 56.82 82.8999 61.7 80.4199 70.5C80.4199 74.35 80.4199 78.59 80.4199 85.65C79.8199 88.71 80.3099 92.09 80.7299 95.87C80.8299 96.8234 80.9399 97.8034 81.0599 98.81C81.2299 99.81 81.4099 100.86 81.5999 101.95C81.9799 104.11 82.3799 106.44 82.8199 108.95C82.8199 110.54 82.8199 112.16 82.8199 114.62C82.0699 116.94 81.2999 119.32 80.1599 122.82L76.0299 129.82L71.6199 142.44C71.6199 147.98 71.6199 153.77 71.6199 161.37C70.6799 164.37 69.7299 167.44 68.4699 171.47V171.52C66.3999 172.85 64.2899 174.19 61.5299 175.94L61.5999 175.83V184.62C62.7399 188.24 63.9099 191.95 65.3899 196.62C65.9699 199.31 66.5499 202.04 67.2899 205.46L69.8099 211.13L73.5899 215.2V227.14H73.4099C72.781 227.113 72.1569 227.261 71.6064 227.566C71.0559 227.871 70.6003 228.322 70.2899 228.87C69.64 230.032 69.2734 231.33 69.2199 232.66C69.1299 235.41 69.2199 238.34 69.2199 241.5V241.58L69.1599 241.63L57.7999 251.1L57.8699 250.96C57.8699 260.42 57.8699 270.2 57.8699 281.25V281.19C59.2599 285.19 60.6699 289.19 62.2899 293.81L62.2199 293.73L77.9999 305.73L78.0799 305.79V322.37L75.5599 328.68L67.9999 342V341.86C68.3999 344.28 68.8099 346.72 69.2599 349.43V349.37C70.7337 351.964 72.0689 354.635 73.2599 357.37C73.8672 358.765 74.3719 360.202 74.7699 361.67C74.9399 362.43 75.0399 363.19 75.1499 363.94L75.2399 364.5V364.63C75.2399 364.63 75.3099 364.63 75.0699 364.7C75.0699 364.7 74.9399 364.7 74.8499 364.7C75.0099 364.65 74.4999 364.75 75.2099 364.56C75.3099 364.73 75.2099 364.62 75.2099 364.67V364.72V365L75.3499 366.14C75.4115 366.894 75.5591 367.639 75.7899 368.36C76.0375 369.083 76.3488 369.782 76.7199 370.45C77.4724 371.805 78.3248 373.102 79.2699 374.33C81.196 376.862 83.2837 379.267 85.5199 381.53L93.7199 394.15V394.2V394.26C93.7199 407.73 93.7199 421.56 93.7199 435.95L93.4899 435.73H96.9999V436.36L96.7699 436.14H533.9H563.9L563.64 436.4C563.64 297.4 563.64 166.58 563.64 53.3L563.87 53.53L101.25 52.88Z" fill="#263238"/>
<g opacity="0.2">
<path d="M162.68 156.88L169.98 159.81L195.76 162.53L185.76 101.98L162.68 156.88Z" fill="black"/>
</g>
<path d="M165.07 105.58L162.68 156.88L193.98 159.81L185.33 100.96L165.07 105.58Z" fill="#455A64"/>
<path d="M188.21 150.87H181.83L180.74 143.56H173L171.91 150.87H166.1L172.54 110.61H181.8L188.21 150.87ZM173.78 138.1H179.87L176.87 117.74L173.78 138.1Z" fill="#E0E0E0"/>
<g opacity="0.2">
<path d="M446.27 151.01L451.41 153.07L469.73 153.73L476.31 111.41L462.01 148.61L446.27 151.01Z" fill="black"/>
</g>
<path d="M446.27 106.19V151H468.18L477.75 104.41L446.27 106.19Z" fill="#E0E0E0"/>
<path d="M463 126.46V128.57H453.9V144.51H451.58V109.31H465V111.43H453.9V126.43L463 126.46Z" fill="#263238"/>
<g opacity="0.2">
<path d="M332.27 159.15L336.64 161.61H347.29L362.34 163.18L368.08 159.15L371.97 147.16L370.21 113.37L350.67 148.58L332.27 159.15Z" fill="black"/>
</g>
<path d="M332.27 159.15L333.78 160.35L346.96 158.25L358.23 160.35L363.31 159.15L365.91 157.25L366.8 154.13L367.6 147.08L370.21 113.37L362.32 146.19L351.24 154.13L333.3 157.55L332.27 159.15Z" fill="#E0E0E0"/>
<path d="M331.13 115.49L332.27 159.15L347.39 156.59H364.5L370.21 113.37L331.13 115.49Z" fill="#EE8421"/>
<path d="M335.92 122.24H348.92C357.72 122.24 363.78 127.24 363.78 135.41C363.78 143.58 357.72 148.58 348.92 148.58H335.92V122.24ZM348.53 141.66C352.25 141.66 354.81 139.44 354.81 135.41C354.81 131.38 352.25 129.17 348.53 129.17H344.8V141.66H348.53Z" fill="white"/>
<g opacity="0.2">
<path d="M199.44 148.18L202.68 152.66C203.503 153.015 204.282 153.464 205 154C206 154.79 208.66 157.06 209 157C209.808 157.229 210.589 157.544 211.33 157.94H216L219.68 158.77C219.68 158.77 222.68 157.22 223.31 157C223.94 156.78 225.63 156.11 225.63 156.11L228.29 155.28L232.44 153.99H240.58L242.58 153.45L243.58 149.45L239.89 109.18L199.44 148.18Z" fill="black"/>
</g>
<path d="M199.44 147.44L202.18 149.53L204.01 150.72L205.71 152.66L208.82 154.03L212.15 154.82H215.15L218.3 156.82C219.446 157.1 220.643 157.1 221.79 156.82C223.45 156.32 225.56 154.23 226.42 154.03C227.843 153.504 229.238 152.907 230.6 152.24L233.98 151.5L238.24 152.24L239.87 150.72L238.24 146.18L215.15 147.01L199.44 147.44Z" fill="#E0E0E0"/>
<path d="M204.28 109.26L199.44 147.44L219.55 153.96L232.78 149.49L239.86 149.87V109.26L215.08 106.69L204.28 109.26Z" fill="#EE8421"/>
<path d="M231.47 132.7C231.47 138.09 226.97 140.84 220.17 140.84H207.64L212.84 114.84H224.37C229.57 114.84 232.58 116.84 232.58 120.56C232.62 122.068 232.177 123.549 231.315 124.787C230.453 126.024 229.218 126.954 227.79 127.44C228.903 127.78 229.87 128.483 230.536 129.436C231.203 130.389 231.532 131.538 231.47 132.7ZM227.79 132.7C227.79 130.06 225.85 129.13 222.36 129.13H213.66L212 137.83H220.48C225.11 137.83 227.79 136 227.79 132.73V132.7ZM215.93 117.8L214.26 126.12H221.88C225.97 126.12 228.72 124.45 228.72 121.12C228.72 118.85 226.82 117.81 223.59 117.81L215.93 117.8Z" fill="#263238"/>
<g opacity="0.2">
<path d="M382.97 162.37L391.38 165.39L400.94 162.37L411.11 163.88L419.77 162.21L421.44 158.05L420.75 112.01L406.25 149.54L382.97 162.37Z" fill="black"/>
</g>
<path d="M382.97 162.37L390.73 163.77L400.46 160.87L407.31 160.19L411.65 161.98L418.21 159.81L406.48 154.86L382.97 162.37Z" fill="#E0E0E0"/>
<path d="M380.18 116.07L382.97 162.37L407.56 157.9L418.21 159.81L420.75 112.01L383.98 108.33L380.18 116.07Z" fill="#455A64"/>
<path d="M395 128.56V138.29H400.41C401.391 138.399 402.38 138.177 403.22 137.66C403.946 136.854 404.327 135.794 404.28 134.71H405V143.28H404.33C404.258 142.495 404.087 141.722 403.82 140.98C403.584 140.538 403.207 140.186 402.75 139.98C402.021 139.7 401.24 139.577 400.46 139.62H395V147.73C394.958 148.4 395.009 149.073 395.15 149.73C395.248 149.971 395.429 150.17 395.66 150.29C396.098 150.465 396.57 150.537 397.04 150.5H401.21C402.218 150.536 403.227 150.438 404.21 150.21C404.898 149.974 405.521 149.58 406.03 149.06C406.958 148.048 407.733 146.906 408.33 145.67H409.06L407 151.83H388V151.16H388.87C389.447 151.161 390.014 151.016 390.52 150.74C390.703 150.656 390.868 150.535 391.004 150.386C391.14 150.236 391.244 150.061 391.31 149.87C391.491 149.09 391.562 148.289 391.52 147.49V131.49C391.635 130.505 391.473 129.507 391.05 128.61C390.759 128.342 390.414 128.138 390.038 128.012C389.662 127.886 389.264 127.841 388.87 127.88H388V127.21H407L407.28 132.6H406.57C406.434 131.67 406.147 130.768 405.72 129.93C405.39 129.426 404.911 129.038 404.35 128.82C403.516 128.596 402.652 128.505 401.79 128.55L395 128.56Z" fill="#263238"/>
<g opacity="0.2">
<path d="M276.34 150.32L300.78 152.05L304.84 106.05L295.31 143.82L276.34 150.32Z" fill="black"/>
</g>
<path d="M276.34 100.96L265.14 123.86L276.34 150.32L298.64 149.06L304.84 106.05L276.34 100.96Z" fill="#263238"/>
<path d="M297.14 113.33V121.86H296.44C296.036 119.867 294.981 118.066 293.44 116.74C292.056 115.581 290.305 114.95 288.5 114.96C286.987 114.958 285.51 115.422 284.27 116.29C283.013 117.142 282.036 118.345 281.46 119.75C280.679 121.688 280.292 123.761 280.32 125.85C280.299 127.88 280.579 129.902 281.15 131.85C281.576 133.456 282.492 134.889 283.77 135.95C285.102 136.926 286.729 137.417 288.38 137.34C289.857 137.361 291.317 137.017 292.63 136.34C294.195 135.437 295.579 134.25 296.71 132.84V135C295.495 136.321 294.03 137.389 292.4 138.14C290.739 138.825 288.956 139.166 287.16 139.14C284.733 139.185 282.332 138.643 280.16 137.56C278.171 136.549 276.528 134.968 275.44 133.02C274.349 131.1 273.777 128.928 273.78 126.72C273.803 124.362 274.446 122.051 275.642 120.019C276.839 117.987 278.549 116.304 280.6 115.14C282.629 113.995 284.92 113.396 287.25 113.4C289.13 113.428 290.989 113.808 292.73 114.52C293.407 114.835 294.123 115.057 294.86 115.18C295.047 115.182 295.233 115.144 295.405 115.07C295.577 114.996 295.732 114.887 295.86 114.75C296.189 114.373 296.386 113.899 296.42 113.4L297.14 113.33Z" fill="white"/>
<g opacity="0.2">
<path d="M484.69 162.19L488.19 164.67H516.45L518.29 163.28L484.69 162.19Z" fill="black"/>
</g>
<path d="M484.69 117.49V162.19L518.29 163.27V111.88L484.69 117.49Z" fill="#EE8421"/>
<path d="M509.28 138.11L508.86 143.33C508.844 145.046 508.592 146.752 508.11 148.4C507.696 149.901 506.773 151.213 505.5 152.11C503.582 153.186 501.395 153.686 499.2 153.55C497.861 153.568 496.523 153.475 495.2 153.27C493.67 153.02 492.91 152.48 492.91 151.66C492.91 150.84 493.44 150.28 494.49 150.28C495.223 150.315 495.951 150.405 496.67 150.55C497.783 150.737 498.912 150.818 500.04 150.79C501.041 150.857 502.039 150.617 502.899 150.1C503.759 149.583 504.44 148.815 504.85 147.9C505.536 146.039 505.852 144.062 505.78 142.08C505.205 143.038 504.401 143.839 503.44 144.41C502.498 144.941 501.431 145.21 500.35 145.19C498.388 145.273 496.471 144.584 495.01 143.27C494.324 142.636 493.784 141.86 493.426 140.997C493.069 140.134 492.903 139.204 492.94 138.27C492.89 137.006 493.117 135.746 493.604 134.579C494.091 133.411 494.827 132.364 495.76 131.51C497.967 129.661 500.795 128.721 503.67 128.88C504.627 128.855 505.582 128.98 506.5 129.25C507.18 129.439 507.786 129.83 508.24 130.37C509.54 130.37 510.19 131.01 510.19 132.21C510.157 133.203 510.03 134.191 509.81 135.16C509.49 136.62 509.32 137.59 509.28 138.11ZM503.45 131.39C502.47 131.33 501.487 131.477 500.567 131.822C499.647 132.166 498.81 132.701 498.11 133.39C496.969 134.668 496.367 136.338 496.43 138.05C496.342 139.261 496.698 140.462 497.43 141.43C497.816 141.828 498.285 142.136 498.804 142.333C499.322 142.53 499.877 142.611 500.43 142.57C501.113 142.534 501.781 142.358 502.394 142.054C503.006 141.75 503.549 141.323 503.99 140.8C504.908 139.938 505.528 138.807 505.76 137.57C506.02 136.45 506.294 134.697 506.58 132.31C506.118 131.998 505.613 131.756 505.08 131.59C504.549 131.447 504 131.38 503.45 131.39Z" fill="white"/>
<g opacity="0.2">
<path d="M480.86 237.7L489.62 239.48L514.75 231.91L517 229.28L508.77 181.75C508.77 181.75 504.51 225.01 505.15 224.86C505.79 224.71 480.86 237.7 480.86 237.7Z" fill="black"/>
</g>
<path d="M477.59 186.78L480.16 237.87L514.75 229.39L508.77 181.75L477.59 186.78Z" fill="#455A64"/>
<path d="M491.82 198.66V229.39H485.82V187H494.19L501 212.36V187H507V229.42H500.15L491.82 198.66Z" fill="#263238"/>
<g opacity="0.2">
<path d="M415.46 185.34C415.46 186.12 418.23 231.78 418.23 231.78L436.54 237.63H450.81L451.86 231.78L446.54 183.6L428.36 216.23L415.46 185.34Z" fill="black"/>
</g>
<path d="M415.46 185.34V229.6L449.31 236.11L446.54 183.6L415.46 185.34Z" fill="#E0E0E0"/>
<path d="M432.37 223.13H430.09L422.74 192.4V223.18H420.74V188.43H424L431.3 219.16L438.55 188.43H441.82V223.18H439.64V192.3L432.37 223.13Z" fill="white"/>
<g opacity="0.2">
<path d="M334.62 372.67L367.28 383.04L370.92 380.22L365.7 326.67L360.63 366.26L334.62 372.67Z" fill="black"/>
</g>
<path d="M334.62 328.41V372.67L368.48 379.18L365.7 326.67L334.62 328.41Z" fill="#E0E0E0"/>
<path d="M348.7 350.07L341.65 366.26H339.42L347.26 348.26L340 331.5H342.39L348.94 346.44L355.55 331.5H357.73L350.43 348.23L358.23 366.23H355.79L348.7 350.07Z" fill="#263238"/>
<g opacity="0.2">
<path d="M274.88 299.71L278.43 301.64H299.32L301.93 299.71L295.09 253.51L292.76 293.79L274.88 299.71Z" fill="black"/>
</g>
<path d="M274.88 255.45V299.71H298.44L295.09 253.51L274.88 255.45Z" fill="#E0E0E0"/>
<path d="M285.59 257.72C290.95 257.72 293.04 261.1 293.04 266.16V269.93C293.04 275.44 290.51 278.18 285.04 278.18H280.72V292.47H278.43V257.72H285.59ZM285 276.09C289 276.09 290.76 274.3 290.76 270.09V266C290.76 262.23 289.47 259.79 285.59 259.79H280.68V276.08L285 276.09Z" fill="#455A64"/>
<g opacity="0.2">
<path d="M218.72 310.58L226.96 311.34L235.54 310.79L246.44 312.31L253.99 309.27L255.01 299.81L254.28 285.46L252.7 264.19L241.79 295.45L218.72 310.58Z" fill="black"/>
</g>
<path d="M215.24 309.39L218.72 310.58L231.73 308.51L242.86 310.58L247.88 309.39L250.44 307.52L251.33 304.43L252.11 297.48L252.7 264.19L246.9 296.6L235.96 304.43L218.24 307.82L215.24 309.39Z" fill="#E0E0E0"/>
<path d="M214.11 266.28L215.24 309.39L230.17 306.86H247.07L252.7 264.19L214.11 266.28Z" fill="#263238"/>
<path d="M220.52 286.81C220.52 280.64 225.52 276.29 232.34 276.29C239.16 276.29 244.16 280.64 244.16 286.81C244.16 292.98 239.25 297.36 232.34 297.36C225.43 297.36 220.52 293 220.52 286.81ZM235.65 286.81C235.65 284.17 234.2 282.81 232.34 282.81C230.48 282.81 229.03 284.15 229.03 286.81C229.03 289.47 230.48 290.81 232.34 290.81C234.2 290.81 235.65 289.45 235.65 286.81Z" fill="white"/>
<g opacity="0.2">
<path d="M271.44 377.89L297.55 381.11L310.43 379.5L317.97 377.89L320.6 368.86L316.8 340.61L288.02 370.94L271.44 377.89Z" fill="black"/>
</g>
<path d="M316.8 340.61L317.97 344.09L315.85 357.1L317.87 368.24L316.67 373.25L314.79 375.8L311.69 376.68L304.74 377.44L271.44 377.89L303.88 372.21L311.75 361.31L315.21 343.61L316.8 340.61Z" fill="#E0E0E0"/>
<path d="M273.69 339.3L316.8 340.61L314.21 355.53L314.14 372.43L271.44 377.89L273.69 339.3Z" fill="#263238"/>
<path d="M298.21 361.93C298.21 361.93 298.31 361.86 298.44 361.72L298.92 361.17L299.58 360.37C299.82 360.07 300.07 359.76 300.32 359.43C300.57 359.1 300.83 358.78 301.08 358.43C301.33 358.08 301.57 357.81 301.77 357.54C301.77 357.42 301.77 357.31 301.77 357.21C301.77 357.11 301.77 356.99 301.77 356.88C301.76 356.34 301.869 355.803 302.09 355.31C302.282 354.885 302.55 354.499 302.88 354.17C303.168 353.877 303.507 353.64 303.88 353.47C304.195 353.327 304.535 353.249 304.88 353.24C305.187 353.207 305.495 353.293 305.74 353.48C305.827 353.564 305.895 353.665 305.939 353.777C305.984 353.889 306.005 354.009 306 354.13C305.992 354.473 305.921 354.812 305.79 355.13C305.642 355.527 305.461 355.912 305.25 356.28C305.02 356.69 304.76 357.11 304.46 357.55C304.16 357.99 303.85 358.41 303.53 358.82C303.72 359.151 303.971 359.443 304.27 359.68C304.534 359.891 304.862 360.007 305.2 360.01C305.487 360.003 305.766 359.92 306.01 359.77L308.57 358.23C308.621 358.199 308.68 358.181 308.74 358.18C308.783 358.181 308.824 358.192 308.862 358.211C308.9 358.23 308.934 358.257 308.96 358.29C309.024 358.365 309.056 358.462 309.05 358.56C309.044 358.681 309.007 358.799 308.94 358.9C308.849 359.047 308.722 359.167 308.57 359.25L306.76 360.32C306.488 360.487 306.196 360.618 305.89 360.71C305.629 360.779 305.36 360.816 305.09 360.82C304.655 360.826 304.225 360.723 303.84 360.52C303.455 360.317 303.115 360.038 302.84 359.7C302.67 359.93 302.46 360.18 302.22 360.45C301.976 360.745 301.716 361.025 301.44 361.29C301.16 361.57 300.85 361.85 300.54 362.12C300.224 362.383 299.89 362.623 299.54 362.84C299.225 363.037 298.889 363.201 298.54 363.33C298.221 363.455 297.882 363.519 297.54 363.52C297.201 363.533 296.869 363.427 296.6 363.22C296.341 362.988 296.141 362.696 296.02 362.37C295.861 361.966 295.756 361.542 295.71 361.11C295.657 360.582 295.63 360.051 295.63 359.52C295.63 358.685 295.674 357.851 295.76 357.02C295.84 356.15 295.92 355.3 296.01 354.45C295.879 354.466 295.752 354.508 295.637 354.573C295.522 354.638 295.421 354.726 295.34 354.83C295.039 355.142 294.762 355.477 294.51 355.83C294.22 356.24 293.9 356.72 293.51 357.24L292.43 358.88C292.05 359.44 291.66 359.99 291.25 360.53C290.871 361.05 290.453 361.542 290 362C289.598 362.389 289.148 362.726 288.66 363C288.242 363.248 287.766 363.383 287.28 363.39C287.078 363.394 286.882 363.323 286.73 363.19C286.566 363.048 286.442 362.865 286.37 362.66C286.265 362.405 286.197 362.135 286.17 361.86C286.17 361.55 286.12 361.22 286.12 360.86C286.124 360.268 286.161 359.677 286.23 359.09C286.3 358.47 286.38 357.88 286.48 357.32C286.58 356.76 286.67 356.27 286.76 355.84C286.85 355.41 286.92 355.11 286.96 354.94C286.7 355.12 286.39 355.32 286.05 355.53L284.96 356.2L283.78 356.9L282.59 357.6L279.8 359.24C279.746 359.279 279.685 359.306 279.62 359.32H279.45C279.27 359.32 279.18 359.22 279.18 359.03C279.186 358.886 279.234 358.746 279.32 358.63C279.444 358.451 279.608 358.303 279.8 358.2L287 354L287.29 353.85C287.497 353.733 287.71 353.63 287.93 353.54C288.19 353.419 288.457 353.315 288.73 353.23C288.978 353.144 289.238 353.096 289.5 353.09L289.78 353.25C289.872 353.309 289.956 353.38 290.03 353.46C290.113 353.533 290.181 353.621 290.23 353.72C290.282 353.819 290.31 353.928 290.31 354.04V354.12C290.315 354.146 290.315 354.174 290.31 354.2L289 361.36L290.53 359.57C290.88 359.16 291.23 358.71 291.59 358.23C291.95 357.75 292.32 357.23 292.7 356.75C293.08 356.27 293.47 355.75 293.88 355.33C294.266 354.889 294.691 354.484 295.15 354.12C295.574 353.782 296.037 353.496 296.53 353.27C297.009 353.059 297.527 352.95 298.05 352.95C298.263 352.935 298.476 352.973 298.67 353.06C298.722 353.093 298.765 353.139 298.795 353.193C298.824 353.248 298.84 353.308 298.84 353.37C298.833 353.527 298.792 353.681 298.72 353.82C298.65 353.99 298.56 354.18 298.46 354.39C298.35 354.614 298.254 354.845 298.17 355.08C298.082 355.333 298.021 355.594 297.99 355.86C297.99 356.03 297.99 356.24 297.94 356.51C297.89 356.78 297.94 357.08 297.88 357.4C297.82 357.72 297.82 358.05 297.79 358.4C297.76 358.75 297.79 359.15 297.79 359.63C297.79 359.96 297.79 360.26 297.79 360.54C297.803 360.785 297.829 361.028 297.87 361.27C297.896 361.439 297.943 361.603 298.01 361.76C298.05 361.87 298.13 361.93 298.21 361.93ZM302.74 356.06C302.731 356.11 302.731 356.16 302.74 356.21C302.74 356.26 302.74 356.32 302.74 356.37C302.94 356.113 303.118 355.838 303.27 355.55C303.342 355.409 303.389 355.257 303.41 355.1C303.41 355.02 303.41 354.98 303.34 354.98C303.27 354.98 303.19 355.07 303.07 355.24C302.908 355.489 302.796 355.768 302.74 356.06Z" fill="#E0E0E0"/>
<g opacity="0.2">
<path d="M374.35 230.29L377.23 231.91L387.1 230.71L400.38 233.3L407.02 229.7L410.62 220.28V212.05L410.32 183.9C410.32 183.9 399.05 208.07 398.92 208.6C398.79 209.13 391 222.36 391 222.36L374.35 230.29Z" fill="black"/>
</g>
<path d="M372.86 229.11L374.35 230.3L387.37 228.23L398.5 230.3L403.52 229.11L406.08 227.24L406.96 224.15L407.75 217.2L410.32 183.9L402.53 216.32L391.59 224.15L373.88 227.54L372.86 229.11Z" fill="#E0E0E0"/>
<path d="M371.73 186L372.86 229.11L387.79 226.58H404.69L410.32 183.9L371.73 186Z" fill="#EE8421"/>
<path d="M376.47 192.67H385.24V211.88H397V218.68H376.47V192.67Z" fill="#263238"/>
<g opacity="0.2">
<path d="M216.57 378.05L223.12 379.68L229.52 376.87L245.94 381.57L252.55 374.15V331.66L239.54 368.92L216.57 378.05Z" fill="black"/>
</g>
<path d="M215.08 376.87L216.57 378.05L229.59 375.98L240.72 378.05L245.74 376.87L248.3 375L249.19 371.91L249.97 364.95L252.55 331.66L244.75 364.08L233.81 371.91L216.1 375.29L215.08 376.87Z" fill="#E0E0E0"/>
<path d="M213.95 333.75L215.08 376.87L230.01 374.34H246.91L252.55 331.66L213.95 333.75Z" fill="#EE8421"/>
<path d="M231.9 364.21L236.15 335.35H241.25L235.79 370.73H227.51L222.05 335.35H227.66L231.9 364.21Z" fill="white"/>
<g opacity="0.2">
<path d="M156.48 300.64L164.03 305.68L179.56 312.39L191.81 307.62L196.78 305.18L198.78 300.64L196.4 262.93L187.41 295.98L156.48 300.64Z" fill="black"/>
</g>
<path d="M156.48 300.64L177.94 310.48L191.15 304.58L196.4 303.03L188.64 302.66L175.68 305.99L156.48 300.64Z" fill="#E0E0E0"/>
<path d="M161.27 262.93L156.48 300.64L176.35 307.07L189.41 302.66L196.4 303.03V262.93L170.31 260.47L161.27 262.93Z" fill="#EE8421"/>
<path d="M191.81 272L186.67 297.69H183.67L172.18 278L168.25 297.78H164.58L169.72 272H172.72L184.21 291.78L188.14 272H191.81Z" fill="#263238"/>
<g opacity="0.2">
<path d="M158.61 208.74C159.53 209.49 171.48 221.37 171.48 221.37L192.3 217.5L196.65 213.63L191.04 173.63L158.61 208.74Z" fill="black"/>
</g>
<path d="M158.61 176.79V208.74L170.86 218.83L193.87 212.58L191.04 173.67L158.61 176.79Z" fill="#E0E0E0"/>
<path d="M186.08 210.16C185.639 210.2 185.198 210.086 184.833 209.835C184.468 209.585 184.201 209.216 184.08 208.79C183.669 207.406 183.371 205.992 183.19 204.56C182.961 203.134 182.834 201.694 182.81 200.25C182.81 199.93 182.81 199.45 182.81 198.81C182.81 198.17 182.86 197.7 182.86 197.38C182.86 195.11 182.2 193.97 180.86 193.97C179.959 193.976 179.068 194.165 178.242 194.524C177.415 194.883 176.669 195.406 176.05 196.06C174.913 197.314 173.908 198.681 173.05 200.14C173.05 204.74 172.82 207.47 172.37 208.31C172.203 208.655 171.942 208.944 171.615 209.145C171.289 209.345 170.913 209.447 170.53 209.44C169.977 209.449 169.437 209.269 169 208.93C168.799 208.793 168.634 208.61 168.519 208.396C168.404 208.182 168.343 207.943 168.34 207.7C168.366 207.426 168.43 207.157 168.53 206.9C168.707 206.028 168.788 205.14 168.77 204.25L168.83 201.57L168.89 188.24C168.99 186.74 169.04 185.74 169.04 185.24C169.046 184.651 168.979 184.063 168.84 183.49C168.706 182.926 168.639 182.349 168.64 181.77C168.637 181.527 168.691 181.287 168.797 181.068C168.902 180.85 169.058 180.659 169.25 180.51C169.68 180.173 170.214 179.996 170.76 180.01C171.236 179.965 171.711 180.106 172.084 180.405C172.457 180.704 172.7 181.136 172.76 181.61C172.967 182.654 173.077 183.715 173.09 184.78C173.09 186.05 173.04 187.38 172.95 188.78C172.86 190.18 172.83 191.42 172.84 192.78V194.38C173.871 193.146 175.135 192.126 176.56 191.38C177.865 190.721 179.307 190.378 180.77 190.38C183.123 190.38 184.733 191.047 185.6 192.38C186.357 193.806 186.723 195.407 186.66 197.02L186.83 200.48L187.26 204.25C187.429 205.509 187.67 206.758 187.98 207.99C188.026 208.16 188.053 208.334 188.06 208.51C188.061 208.753 188.005 208.993 187.895 209.211C187.786 209.428 187.626 209.616 187.43 209.76C187.029 210.023 186.559 210.162 186.08 210.16Z" fill="white"/>
<g opacity="0.2">
<path d="M162.11 374.47L172 387.41L187.88 385.71L197.37 380.16L199.44 373.29L194.54 339.41C194.54 339.41 178.32 375.85 178.32 375.41C178.32 374.97 162.11 374.47 162.11 374.47Z" fill="black"/>
</g>
<path d="M162.11 342.53V374.47L174.36 384.56L197.37 378.31L194.54 339.4L162.11 342.53Z" fill="#E0E0E0"/>
<path d="M186.35 354V373.3H183.86V369.78C183.144 370.965 182.121 371.934 180.9 372.586C179.678 373.237 178.303 373.546 176.92 373.48C172 373.48 168.77 370.73 168.77 365.19V354H171.38V364.93C171.38 369.04 173.51 371.14 177.18 371.14C181.18 371.14 183.75 368.53 183.75 364.14V354H186.35Z" fill="#EE8421"/>
<g opacity="0.2">
<path d="M368.82 313.72L378.33 317.94L387.13 314.53L394.49 315.25H399.61L403.22 314.26L405.72 310.22V264.14L389.82 302.06L368.82 313.72Z" fill="black"/>
</g>
<path d="M368.42 313.87L376.08 315.25L385.69 312.39L392.45 311.72L396.75 313.49L403.22 311.34L391.63 306.45L368.42 313.87Z" fill="#E0E0E0"/>
<path d="M365.66 268.15L368.42 313.87L392.7 309.46L403.22 311.34L405.72 264.14L369.42 260.5L365.66 268.15Z" fill="#455A64"/>
<path d="M384 269.34C389.42 269.34 392.21 272.58 392.21 278.26V279.38H387V277.91C387 275.37 386 274.41 384.21 274.41C382.42 274.41 381.42 275.41 381.42 277.91C381.42 285.21 392.32 286.58 392.32 296.72C392.32 302.4 389.48 305.64 384 305.64C378.52 305.64 375.69 302.4 375.69 296.72V294.54H380.96V297.07C380.96 299.61 382.08 300.52 383.85 300.52C385.62 300.52 386.74 299.61 386.74 297.07C386.74 289.77 375.84 288.4 375.84 278.26C375.82 272.58 378.61 269.34 384 269.34Z" fill="#263238"/>
<g opacity="0.2">
<path d="M212.9 180.4L212.37 234.71L241.53 237.09L242.43 232.16L221.49 228.25L212.9 180.4Z" fill="black"/>
</g>
<path d="M212.9 180.4L214.75 232.16H242.43L236.89 180.4H212.9Z" fill="#455A64"/>
<path d="M221.19 195C221.19 192.61 223.14 190.78 226.19 190.78C229.24 190.78 231.19 192.47 231.19 194.85C231.19 197.38 229.25 199.22 226.19 199.22C223.13 199.22 221.19 197.37 221.19 195ZM222.03 200.83H230.33V220.9H222L222.03 200.83Z" fill="#263238"/>
<g opacity="0.2">
<path d="M318 306.01L325.77 308.44H345.69L348.1 304.47L340.15 254.24L335.09 302.69L318 306.01Z" fill="black"/>
</g>
<path d="M316.16 254.24L318 306.01H345.69L340.15 254.24H316.16Z" fill="#455A64"/>
<path d="M341.06 278.13C341.141 278.092 341.231 278.075 341.32 278.08C341.375 278.077 341.43 278.088 341.481 278.11C341.531 278.133 341.576 278.167 341.61 278.21C341.689 278.305 341.729 278.427 341.72 278.55C341.715 278.728 341.66 278.902 341.56 279.05C341.429 279.244 341.259 279.407 341.06 279.53L336.54 282.45C335.82 282.965 335.15 283.548 334.54 284.19C333.889 284.869 333.285 285.59 332.73 286.35C332.154 287.129 331.623 287.94 331.14 288.78C330.65 289.62 330.19 290.47 329.77 291.33C329.35 292.19 328.94 293.02 328.57 293.85C328.2 294.68 327.86 295.45 327.57 296.18C327.514 296.303 327.434 296.413 327.334 296.504C327.235 296.595 327.118 296.665 326.99 296.71C326.716 296.799 326.429 296.843 326.14 296.84H325.81C325.688 296.825 325.567 296.798 325.45 296.76C325.335 296.725 325.231 296.659 325.15 296.57C325.108 296.523 325.076 296.467 325.055 296.407C325.035 296.347 325.026 296.283 325.03 296.22C325.054 295.976 325.101 295.735 325.17 295.5C325.26 295.15 325.36 294.77 325.48 294.37C325.6 293.97 325.7 293.61 325.81 293.27C325.92 292.93 325.99 292.72 326.02 292.64C326.38 291.787 326.714 291.057 327.02 290.45C327.3 289.85 327.55 289.32 327.78 288.89C327.986 288.492 328.216 288.108 328.47 287.74C328.704 287.407 328.944 287.073 329.19 286.74C329.45 286.43 329.73 286.1 330.05 285.74L331.17 284.53C330.551 284.815 329.909 285.046 329.25 285.22C328.683 285.373 328.098 285.453 327.51 285.46C327.039 285.469 326.57 285.401 326.12 285.26C325.716 285.129 325.345 284.915 325.03 284.63C324.719 284.329 324.477 283.964 324.32 283.56C324.143 283.084 324.058 282.578 324.07 282.07C324.064 280.967 324.272 279.874 324.68 278.85C325.093 277.815 325.638 276.837 326.3 275.94L325.49 276.45L324.56 277.02L323.56 277.6L322.62 278.15L320.43 279.49C320.371 279.519 320.306 279.536 320.24 279.54C320.175 279.54 320.111 279.526 320.052 279.498C319.993 279.47 319.942 279.43 319.9 279.38C319.8 279.271 319.746 279.128 319.75 278.98C319.759 278.822 319.811 278.67 319.9 278.54C320.039 278.348 320.221 278.191 320.43 278.08C322.53 276.85 324.38 275.76 325.96 274.81C327.54 273.86 328.89 273.07 329.96 272.42C330.738 271.882 331.577 271.439 332.46 271.1C333.193 270.809 333.972 270.653 334.76 270.64C335.1 270.628 335.438 270.688 335.754 270.816C336.069 270.943 336.354 271.135 336.59 271.38C337.12 272.047 337.374 272.891 337.3 273.74C337.279 274.268 337.216 274.793 337.11 275.31C336.961 276.071 336.768 276.822 336.53 277.56C336.244 278.428 335.91 279.279 335.53 280.11C335.147 280.97 334.692 281.796 334.17 282.58L341.06 278.13ZM333.91 272.4C333.222 272.398 332.542 272.537 331.91 272.81C331.25 273.087 330.634 273.457 330.08 273.91C329.507 274.374 328.984 274.896 328.52 275.47C328.06 276.037 327.655 276.646 327.31 277.29C326.983 277.883 326.721 278.51 326.53 279.16C326.35 279.709 326.253 280.282 326.24 280.86C326.238 281.26 326.295 281.657 326.41 282.04C326.505 282.383 326.68 282.698 326.92 282.96C327.161 283.226 327.458 283.434 327.79 283.57C328.182 283.723 328.6 283.798 329.02 283.79C329.24 283.785 329.459 283.751 329.67 283.69L330.37 283.46L331.07 283.2C331.277 283.123 331.492 283.066 331.71 283.03C332.19 282.03 332.63 281.11 333.04 280.2C333.45 279.29 333.8 278.42 334.1 277.61C334.4 276.8 334.63 276.07 334.8 275.41C334.952 274.862 335.036 274.298 335.05 273.73C335.074 273.377 334.982 273.027 334.79 272.73C334.682 272.607 334.545 272.513 334.391 272.455C334.238 272.398 334.073 272.379 333.91 272.4Z" fill="white"/>
<g opacity="0.2">
<path d="M391.18 386.97L403.54 393.27L421.82 397.3L429.5 395.5L425.94 337.42L417.66 389.41L391.18 386.97Z" fill="black"/>
</g>
<path d="M389.33 335.21L391.18 386.97L425.94 395.5V337.42L389.33 335.21Z" fill="#455A64"/>
<path d="M422.49 359.9L420.68 361C420.087 361.347 419.497 361.717 418.91 362.11C418.32 362.5 417.72 362.92 417.1 363.36C416.48 363.8 415.83 364.36 415.1 364.87C414.54 366.31 413.937 367.807 413.29 369.36C412.643 370.913 411.957 372.427 411.23 373.9C410.51 375.38 409.76 376.77 408.98 378.09C408.274 379.307 407.475 380.467 406.59 381.56C405.869 382.457 405.031 383.254 404.1 383.93C403.379 384.471 402.51 384.778 401.61 384.81C401.218 384.818 400.827 384.767 400.45 384.66C400.162 384.574 399.891 384.439 399.65 384.26C399.45 384.114 399.289 383.922 399.18 383.7C399.075 383.51 399.019 383.297 399.02 383.08C399.057 382.598 399.161 382.123 399.33 381.67C399.594 380.913 399.928 380.183 400.33 379.49C400.78 378.65 401.33 377.72 402.04 376.68C402.803 375.532 403.624 374.424 404.5 373.36C405.46 372.18 406.573 370.95 407.84 369.67C409.212 368.288 410.654 366.976 412.16 365.74C412.81 364.24 413.36 362.97 413.81 361.95C414.26 360.93 414.65 360.07 414.96 359.39C415.27 358.71 415.51 358.16 415.69 357.76C415.87 357.36 416 357.01 416.1 356.76C415.578 357.455 415.02 358.122 414.43 358.76C413.79 359.46 413.08 360.16 412.3 360.87C411.52 361.58 410.7 362.24 409.83 362.87C408.968 363.498 408.066 364.07 407.13 364.58C406.228 365.065 405.285 365.467 404.31 365.78C403.402 366.073 402.454 366.225 401.5 366.23C401.311 366.247 401.12 366.217 400.945 366.142C400.771 366.067 400.618 365.949 400.5 365.8C400.295 365.457 400.197 365.059 400.22 364.66C400.231 364.137 400.302 363.617 400.43 363.11C400.57 362.51 400.75 361.88 400.97 361.2C401.19 360.52 401.43 359.84 401.71 359.13C401.99 358.42 402.27 357.74 402.57 357.13C402.87 356.52 403.14 355.87 403.4 355.31C403.66 354.75 403.86 354.31 404.03 353.92C403.51 354.25 402.87 354.63 402.09 355.08L399.56 356.55L396.66 358.22L393.61 360C393.487 360.08 393.346 360.124 393.2 360.13C393.14 360.133 393.079 360.124 393.023 360.104C392.966 360.083 392.914 360.051 392.87 360.01C392.788 359.92 392.745 359.802 392.75 359.68C392.76 359.495 392.827 359.317 392.94 359.17C393.124 358.941 393.352 358.75 393.61 358.61L397.45 356.35L400.32 354.65C401.13 354.17 401.83 353.77 402.4 353.45C402.97 353.13 403.48 352.87 403.89 352.68C404.213 352.519 404.547 352.382 404.89 352.27C405.133 352.191 405.385 352.148 405.64 352.14C405.935 352.125 406.227 352.198 406.48 352.35C406.695 352.488 406.876 352.673 407.01 352.89C407.141 353.108 407.229 353.349 407.27 353.6C407.317 353.84 407.341 354.085 407.34 354.33C407.322 354.902 407.196 355.465 406.97 355.99C406.705 356.675 406.397 357.343 406.05 357.99C405.69 358.67 405.29 359.35 404.87 359.99C404.45 360.63 404.05 361.33 403.68 361.99C403.31 362.65 403.01 363.15 402.76 363.62C402.562 363.957 402.436 364.332 402.39 364.72C402.39 364.98 402.52 365.1 402.78 365.1C403.321 365.068 403.85 364.932 404.34 364.7C405.073 364.373 405.785 363.999 406.47 363.58C407.25 363.11 408.07 362.58 408.94 361.91C409.81 361.24 410.68 360.58 411.53 359.85C412.38 359.12 413.22 358.36 414.02 357.57C414.82 356.78 415.53 355.99 416.18 355.2C416.241 355.09 416.272 354.966 416.27 354.84C416.289 354.657 416.337 354.479 416.41 354.31C416.486 354.127 416.607 353.966 416.76 353.84C416.977 353.692 417.238 353.622 417.5 353.64C417.728 353.63 417.955 353.664 418.17 353.74C418.319 353.789 418.45 353.879 418.55 354C418.632 354.123 418.684 354.263 418.7 354.41C418.716 354.586 418.716 354.764 418.7 354.94C418.596 355.134 418.512 355.338 418.45 355.55C418.31 355.96 418.11 356.55 417.87 357.24L417.01 359.78C416.67 360.78 416.28 361.83 415.86 362.98C416.86 362.24 417.92 361.52 418.99 360.81C420.06 360.1 421.21 359.39 422.43 358.68C422.492 358.649 422.56 358.632 422.63 358.63C422.694 358.631 422.757 358.645 422.815 358.671C422.873 358.697 422.926 358.734 422.97 358.78C423.023 358.829 423.065 358.89 423.093 358.957C423.121 359.025 423.133 359.097 423.13 359.17C423.124 359.327 423.067 359.477 422.97 359.6C422.827 359.726 422.665 359.827 422.49 359.9ZM407.5 372C407.058 372.476 406.659 372.992 406.31 373.54C405.9 374.16 405.49 374.83 405.09 375.54C404.69 376.25 404.3 377 403.94 377.75C403.58 378.5 403.25 379.21 402.94 379.87C402.63 380.53 402.44 381.11 402.28 381.62C402.151 381.971 402.071 382.338 402.04 382.71C402.04 382.97 402.16 383.1 402.41 383.1C402.758 383.074 403.086 382.929 403.34 382.69C403.714 382.359 404.049 381.986 404.34 381.58C404.728 381.068 405.085 380.534 405.41 379.98C405.78 379.37 406.15 378.72 406.52 378.05C406.89 377.38 407.25 376.67 407.61 375.96C407.97 375.25 408.32 374.58 408.66 373.96C409.08 372.96 409.47 371.96 409.84 371.12C410.21 370.28 410.55 369.4 410.84 368.62C409.89 369.57 408.74 370.71 407.5 372Z" fill="white"/>
<g opacity="0.2">
<path d="M265.14 238.05L274.81 239.77L291.98 236.42L296.11 226.63L292.33 177.44L281.52 228.18L265.14 238.05Z" fill="black"/>
</g>
<path d="M264.02 175.49L265.14 238.05L288.22 232.6L294.3 227.31L292.33 177.44L264.02 175.49Z" fill="#EE8421"/>
<path d="M281.35 190.87C281.688 191.548 281.947 192.263 282.12 193C282.307 193.812 282.427 194.638 282.48 195.47C282.531 196.419 282.531 197.371 282.48 198.32C282.43 199.32 282.35 200.46 282.24 201.66C283.127 200.22 283.943 198.923 284.69 197.77C285.44 196.61 286.08 195.63 286.61 194.84C286.639 194.78 286.689 194.734 286.75 194.71C286.896 194.658 287.055 194.658 287.2 194.71C287.283 194.73 287.36 194.766 287.427 194.818C287.494 194.87 287.55 194.935 287.59 195.01C287.653 195.176 287.67 195.355 287.64 195.53C287.582 195.797 287.469 196.048 287.31 196.27C287.06 196.67 286.75 197.17 286.39 197.79C286.03 198.41 285.61 199.1 285.16 199.9C284.71 200.7 284.23 201.55 283.71 202.49C283.19 203.43 282.66 204.41 282.1 205.44C281.913 207.167 281.647 208.93 281.3 210.73C280.97 212.53 280.58 214.28 280.14 216C279.7 217.72 279.23 219.34 278.71 220.89C278.248 222.288 277.71 223.66 277.1 225C276.615 226.092 276.029 227.137 275.35 228.12C274.899 228.822 274.29 229.408 273.57 229.83C273.063 230.13 272.489 230.299 271.9 230.32C271.719 230.316 271.542 230.262 271.389 230.166C271.236 230.069 271.112 229.932 271.03 229.77C270.79 229.167 270.711 228.513 270.8 227.87C270.898 226.887 271.079 225.913 271.34 224.96C271.63 223.85 272.02 222.63 272.5 221.29C272.98 219.95 273.5 218.55 274.15 217.08C274.8 215.61 275.42 214.08 276.15 212.56C276.88 211.04 277.59 209.47 278.32 207.95C278.44 206.89 278.52 205.79 278.59 204.66C278.66 203.53 278.69 202.35 278.71 201.11L278.38 194.04L272 204C271.951 204.086 271.878 204.155 271.79 204.2C271.644 204.25 271.486 204.25 271.34 204.2C271.273 204.192 271.208 204.17 271.149 204.136C271.091 204.101 271.04 204.055 271 204C270.929 203.836 270.911 203.654 270.95 203.48C271.016 203.175 271.141 202.886 271.32 202.63C271.87 201.8 272.39 201 272.89 200.22L274.34 197.96L278.34 191.78C278.505 191.537 278.704 191.318 278.93 191.13C279.165 190.919 279.427 190.74 279.71 190.6C279.988 190.448 280.303 190.375 280.62 190.39C280.77 190.41 280.914 190.463 281.04 190.546C281.167 190.629 281.273 190.74 281.35 190.87ZM273.19 228.13C273.658 227.801 274.053 227.379 274.35 226.89C274.961 225.966 275.468 224.976 275.86 223.94C276.463 222.383 276.957 220.785 277.34 219.16C277.861 216.945 278.225 214.696 278.43 212.43C277.81 213.63 277.22 214.82 276.64 215.99C276.06 217.16 275.53 218.29 275.02 219.38C274.51 220.47 274.07 221.48 273.67 222.44C273.27 223.4 272.94 224.25 272.67 225.01C272.448 225.64 272.271 226.285 272.14 226.94C272.031 227.309 272.031 227.701 272.14 228.07C272.34 228.37 272.67 228.39 273.19 228.13ZM279.64 183.68L280.03 183.5C280.21 183.41 280.43 183.32 280.68 183.22C280.93 183.12 281.19 183.04 281.47 182.96C281.738 182.887 282.013 182.84 282.29 182.82C282.534 182.808 282.777 182.838 283.01 182.91C283.226 182.982 283.408 183.132 283.52 183.33L282 186.41L281.16 187.49C281.077 187.541 280.984 187.574 280.888 187.586C280.791 187.598 280.693 187.589 280.6 187.56C280.445 187.513 280.299 187.439 280.17 187.34L279.64 183.68Z" fill="white"/>
<g opacity="0.2">
<path d="M481.61 308.28L501.43 316.6L519.03 315.9L521.37 307.95L509.77 300.98L491.06 298.39L481.61 308.28Z" fill="black"/>
</g>
<path d="M486.33 265.49C486.33 265.49 480.6 308.28 481.61 308.28C482.62 308.28 514.29 313.34 514.29 313.34L521.37 307.95V268.18L486.33 265.49Z" fill="#EE8421"/>
<path d="M499.6 306.58V273.91H492.55V271.83H509V273.91H501.9V306.58H499.6Z" fill="white"/>
<g opacity="0.2">
<path d="M451.86 393.3L475.75 403.23L489.32 400.59L493.42 393.3L491.62 353.2L468.36 390.2L451.86 393.3Z" fill="black"/>
</g>
<path d="M456.57 350.5C456.57 350.5 450.84 393.3 451.86 393.3C452.88 393.3 484.54 398.35 484.54 398.35L491.62 392.96V353.2L456.57 350.5Z" fill="#EE8421"/>
<path d="M479.34 391.6H463.7V389.51L477.15 358.93H464.34V356.84H479.54V359L466.08 389.53H479.34V391.6Z" fill="#E0E0E0"/>
<g opacity="0.2">
<path d="M430.5 307.09L451.97 309.2L465.67 306.05L458.64 263.37L456.63 291.8L430.5 307.09Z" fill="black"/>
</g>
<path d="M430.5 258.34L419.44 280.96L430.5 307.09L461.65 305.33L458.64 263.37L430.5 258.34Z" fill="#263238"/>
<path d="M437.55 284.34V291.15C437.493 291.984 437.574 292.822 437.79 293.63C437.972 293.992 438.272 294.281 438.64 294.45C439.372 294.701 440.148 294.803 440.92 294.75V295.42H428.48V294.75C429.253 294.807 430.03 294.701 430.76 294.44C431.124 294.265 431.422 293.978 431.61 293.62C431.827 292.816 431.908 291.981 431.85 291.15V275.38C431.908 274.546 431.827 273.708 431.61 272.9C431.424 272.538 431.121 272.249 430.75 272.08C430.021 271.829 429.249 271.727 428.48 271.78V271.11H439.77C441.937 271.031 444.106 271.236 446.22 271.72C447.539 272.102 448.704 272.889 449.55 273.97C450.414 275.064 450.87 276.426 450.84 277.82C450.862 278.656 450.7 279.487 450.367 280.254C450.033 281.021 449.536 281.706 448.91 282.26C447.908 283.088 446.721 283.661 445.45 283.93L451.29 292.15C451.763 292.871 452.309 293.542 452.92 294.15C453.413 294.525 454.011 294.738 454.63 294.76V295.43H447L439.17 284.35L437.55 284.34ZM437.55 272.42V283.07H438.55C439.81 283.121 441.07 282.965 442.28 282.61C443.103 282.309 443.791 281.724 444.22 280.96C444.733 280.006 444.978 278.932 444.93 277.85C445.056 277.103 445 276.337 444.768 275.617C444.535 274.896 444.133 274.242 443.595 273.71C443.056 273.177 442.398 272.782 441.675 272.558C440.952 272.333 440.185 272.286 439.44 272.42H437.55Z" fill="#455A64"/>
<g opacity="0.2">
<path d="M320.32 224.84L337.4 229.24H350.17L351.71 188.25L341.72 218.8L320.32 224.84Z" fill="black"/>
</g>
<path d="M317.53 178.13L320.32 224.84L346.13 226.28L351.71 188.25L343.79 175.69L317.53 178.13Z" fill="#263238"/>
<path d="M331.89 185.59V201.59L335.78 197.77C336.335 197.264 336.834 196.701 337.27 196.09C337.457 195.789 337.56 195.444 337.57 195.09C337.57 194.935 337.534 194.782 337.465 194.643C337.395 194.504 337.294 194.383 337.17 194.29C336.705 194.004 336.175 193.842 335.63 193.82V193.16H343.14V193.82C342.483 193.844 341.839 194.018 341.26 194.33C340.122 195.145 339.064 196.065 338.1 197.08L336.28 198.87L340.22 204.65C341.093 206.013 342.037 207.328 343.05 208.59C343.465 208.994 344.012 209.236 344.59 209.27V209.91H335.94V209.27C336.234 209.297 336.528 209.219 336.77 209.05C336.846 208.998 336.908 208.93 336.953 208.85C336.999 208.77 337.025 208.681 337.03 208.59C336.901 208.029 336.645 207.505 336.28 207.06L333 202.19L331.93 203.25V206.25C331.844 207.063 331.964 207.886 332.28 208.64C332.473 208.832 332.703 208.984 332.955 209.087C333.207 209.19 333.478 209.242 333.75 209.24V209.88H325.1V209.24C325.383 209.235 325.662 209.172 325.92 209.055C326.178 208.938 326.41 208.77 326.6 208.56C326.89 207.827 326.996 207.034 326.91 206.25V189.25C326.992 188.443 326.872 187.629 326.56 186.88C326.169 186.5 325.646 186.285 325.1 186.28V185.61L331.89 185.59Z" fill="white"/>
<path d="M117.59 417V438.1L161.02 437.9C160.7 433.62 136.87 425.08 136.87 425.08L137.35 417H117.59Z" fill="#455A64"/>
<g opacity="0.6">
<path d="M124.62 423.18C124.2 423.328 123.848 423.623 123.629 424.011C123.41 424.4 123.339 424.854 123.43 425.29C123.537 425.716 123.806 426.084 124.179 426.315C124.552 426.547 125.001 426.624 125.43 426.53C125.877 426.375 126.251 426.061 126.481 425.648C126.712 425.235 126.782 424.752 126.68 424.29C126.524 423.857 126.203 423.503 125.787 423.306C125.371 423.11 124.894 423.086 124.46 423.24" fill="white"/>
</g>
<path d="M117.59 438.11V434.74L159.05 435.22C159.05 435.22 161.22 436.5 161.05 437.91L117.59 438.11Z" fill="#263238"/>
<path d="M136.87 425.5C136.87 425.72 135.81 425.83 134.79 426.55C133.77 427.27 133.22 428.2 133.02 428.12C132.82 428.04 133.12 426.76 134.38 425.91C135.64 425.06 136.91 425.3 136.87 425.5Z" fill="#263238"/>
<path d="M142.56 427.45C142.61 427.66 141.7 428.05 141 428.99C140.3 429.93 140.1 430.9 139.89 430.9C139.68 430.9 139.53 429.66 140.43 428.51C141.33 427.36 142.55 427.24 142.56 427.45Z" fill="#263238"/>
<path d="M145.12 432.83C144.93 432.88 144.62 431.83 145.12 430.58C145.62 429.33 146.63 428.88 146.72 429.06C146.81 429.24 146.21 429.9 145.79 430.89C145.37 431.88 145.33 432.81 145.12 432.83Z" fill="#263238"/>
<path d="M136.45 419.5C136.36 419.7 135.39 419.41 134.2 419.5C133.01 419.59 132.09 420.01 131.97 419.82C131.85 419.63 132.74 418.82 134.15 418.74C135.56 418.66 136.55 419.32 136.45 419.5Z" fill="#263238"/>
<path d="M136.69 426.44C136.811 426.021 136.841 425.582 136.78 425.15C136.686 423.964 136.29 422.821 135.63 421.83C135.179 421.142 134.602 420.545 133.93 420.07C133.729 419.906 133.489 419.796 133.233 419.752C132.977 419.708 132.715 419.732 132.47 419.82C132.217 419.955 132.003 420.154 131.852 420.399C131.701 420.643 131.618 420.923 131.61 421.21C131.686 422.319 132.089 423.381 132.769 424.261C133.45 425.14 134.376 425.798 135.43 426.15C136.467 426.476 137.576 426.487 138.619 426.183C139.662 425.878 140.592 425.272 141.29 424.44C141.635 424.064 141.901 423.621 142.07 423.14C142.16 422.867 142.16 422.573 142.07 422.3C142.023 422.161 141.945 422.035 141.843 421.929C141.741 421.824 141.617 421.742 141.48 421.69C141.031 421.556 140.546 421.602 140.13 421.82C139.783 421.981 139.449 422.168 139.13 422.38C138.154 423.014 137.312 423.832 136.65 424.79C136.382 425.126 136.178 425.509 136.05 425.92C136.95 424.675 138.072 423.607 139.36 422.77C139.94 422.44 140.7 421.97 141.36 422.18C141.63 422.29 141.73 422.6 141.6 422.97C141.445 423.37 141.214 423.737 140.92 424.05C140.284 424.78 139.449 425.31 138.517 425.574C137.585 425.839 136.596 425.827 135.67 425.54C134.747 425.228 133.932 424.659 133.323 423.898C132.713 423.138 132.334 422.219 132.23 421.25C132.223 421.066 132.267 420.884 132.357 420.723C132.447 420.563 132.58 420.43 132.74 420.34C132.908 420.278 133.089 420.262 133.265 420.294C133.441 420.325 133.605 420.403 133.74 420.52C134.369 420.943 134.918 421.475 135.36 422.09C136.012 423.01 136.443 424.067 136.62 425.18C136.66 426 136.64 426.44 136.69 426.44Z" fill="#263238"/>
<path d="M97.3202 418.71V425.52L96.8302 437.77L80.5402 438.16L79.9702 425.52L80.4402 417.82L97.3202 418.71Z" fill="#455A64"/>
<path d="M88.7802 436.85C88.6802 436.85 88.9102 433.11 89.3002 428.48C89.6902 423.85 90.0802 420.1 90.1802 420.1C90.2802 420.1 90.0502 423.84 89.6602 428.46C89.2702 433.08 88.8802 436.85 88.7802 436.85Z" fill="#263238"/>
<path d="M96.8904 435.73L80.4404 435.92V438.16L96.9004 438.14L96.8904 435.73Z" fill="#263238"/>
<path d="M80.48 428.69C80.5851 428.453 80.7268 428.233 80.9 428.04C81.3344 427.489 81.8199 426.98 82.35 426.52C83.1425 425.825 84.0276 425.242 84.98 424.79C86.1635 424.225 87.4584 423.931 88.77 423.93C89.9567 423.923 91.1323 424.158 92.2245 424.623C93.3166 425.087 94.302 425.77 95.12 426.63C95.6003 427.15 96.0044 427.736 96.32 428.37C96.447 428.593 96.5349 428.837 96.58 429.09C96.0709 428.305 95.499 427.563 94.87 426.87C93.2328 425.29 91.0455 424.408 88.77 424.41C86.4986 424.48 84.3176 425.315 82.58 426.78C81.21 427.87 80.55 428.75 80.48 428.69Z" fill="#263238"/>
<path d="M135.39 261.33L132.77 257.82L71.9401 260.68C71.9401 260.68 70.7701 279.58 71.6201 286.5C71.8901 288.72 73.1401 297.32 73.1401 297.32L74.6401 363.99C75.2201 369.27 76.6401 424.92 76.6401 424.92H100.75L105.67 335.72C106.19 325.79 105.78 312.5 106.28 301.52L110.35 304.76L120.26 351.76C120.26 351.76 119.05 368.59 117.54 380.76C115.18 400 116 424.15 116 424.15L140.75 424.55C140.75 424.55 142.16 401.55 144.85 383.14L149 350.27C149 346.58 147.48 337.71 147 331.67L135.39 261.33Z" fill="#263238"/>
<path d="M110.36 304.76C108.07 303.288 105.879 301.668 103.8 299.91C101.61 298.288 99.5259 296.528 97.5601 294.64C99.8487 296.118 102.04 297.741 104.12 299.5C106.311 301.118 108.395 302.875 110.36 304.76Z" fill="#455A64"/>
<path d="M153.86 201.63C153.28 199.814 152.799 197.968 152.42 196.1C152.35 195.02 152.42 190.6 152.42 190.6C152.42 190.6 155.07 184.74 155.97 184.32C156.499 184.071 157.056 183.889 157.63 183.78L160.07 174.12C160.07 174.12 160.86 172.12 162.17 172.49C163.48 172.86 163.27 174.18 163.28 174.87C163.29 175.56 162.14 183.26 162.14 183.26L162.24 183.7C162.24 183.7 164.35 182.78 165.14 183.7C165.675 184.418 166.038 185.25 166.2 186.13C166.624 186.115 167.042 186.23 167.4 186.458C167.757 186.687 168.036 187.019 168.2 187.41L168.84 188.8C169.288 188.743 169.744 188.805 170.16 188.981C170.576 189.156 170.939 189.439 171.21 189.8C172.01 191.05 171.01 195.24 171.01 195.24C171.01 195.24 168.06 201.54 167.15 202.49C166.174 203.612 165.256 204.783 164.4 206L153.86 201.63Z" fill="#FFBF9D"/>
<path d="M158.1 181.69C158.064 182.315 157.95 182.933 157.76 183.53C157.437 185.016 156.94 186.459 156.28 187.83C155.439 189.066 154.703 190.371 154.08 191.73C153.906 192.316 153.799 192.92 153.76 193.53C153.539 192.919 153.539 192.251 153.76 191.64C154.304 190.228 155.012 188.886 155.87 187.64C156.505 186.295 157.03 184.9 157.44 183.47C157.592 182.854 157.814 182.256 158.1 181.69Z" fill="#FF9A6C"/>
<path d="M162.14 183.4C162.2 183.4 162.29 183.58 162.26 183.88C162.209 184.259 162.098 184.627 161.93 184.97C161.57 185.77 161.18 186.34 161.08 186.3C160.98 186.26 161.17 185.56 161.53 184.79C161.7 184.41 161.86 184.07 161.96 183.79C162.06 183.51 162.08 183.41 162.14 183.4Z" fill="#FF9A6C"/>
<path d="M166 185.91C166.12 185.91 166.2 186.42 166.1 187.02C166 187.62 165.76 188.02 165.65 188.02C165.54 188.02 165.57 187.5 165.65 186.93C165.73 186.36 165.91 185.91 166 185.91Z" fill="#FF9A6C"/>
<path d="M168.77 188.4C168.88 188.4 169.16 188.94 169.03 189.69C168.9 190.44 168.43 190.89 168.35 190.81C168.27 190.73 168.49 190.25 168.59 189.61C168.69 188.97 168.65 188.44 168.77 188.4Z" fill="#FF9A6C"/>
<path d="M153.49 200.78L149.85 213.27L162.32 221.07L165.27 203.23L160.53 199.04L153.49 200.78Z" fill="#FFBF9D"/>
<path d="M91.8702 122.22L91.7202 169.84L112.15 170.84L112.75 159.26C112.75 159.26 120 160.7 121.87 153.96C123.07 149.66 122.77 116.38 122.77 116.38L91.8702 122.22Z" fill="#FFBF9D"/>
<path d="M125.46 119.71C122.24 120.63 121.54 125.89 121.54 125.89L116.54 137.04C113.96 135.04 110.54 135.14 109.86 139.66C109.39 142.92 113.45 143.58 113.45 143.58C111.08 147.58 109.45 150.86 106.04 154.69C102.31 158.83 100.23 159.24 96.1902 159.31H91.7302C91.7302 159.31 89.5502 152.23 85.5202 134.53C81.0402 114.9 104.26 117.43 108.52 112.42C115.53 104.25 135.61 116.8 125.46 119.71Z" fill="#263238"/>
<path d="M85.9001 136.39C82.1401 133.86 81.8001 126.78 83.9901 122.54C85.1209 120.426 86.7881 118.647 88.8243 117.381C90.8605 116.116 93.1939 115.408 95.5901 115.33C96.2275 115.371 96.8672 115.3 97.4801 115.12C98.3071 114.667 98.9977 114 99.4801 113.19C102.85 108.82 106.15 104.52 112.42 104.52C113.803 104.462 115.172 104.81 116.36 105.52C117.469 106.279 118.301 107.377 118.73 108.65C119.885 108.04 121.121 107.595 122.4 107.33C123.042 107.206 123.703 107.222 124.338 107.378C124.974 107.533 125.568 107.824 126.08 108.23C126.575 108.657 126.904 109.246 127.008 109.891C127.112 110.537 126.985 111.199 126.65 111.76C127.712 111.743 128.744 112.107 129.561 112.785C130.377 113.464 130.923 114.413 131.1 115.46C131.43 117.55 128.44 119.02 128.1 119.19C128.1 119.19 129.74 122.63 125.82 124.69C124.24 125.52 122.19 124.52 121.95 124.4" fill="#263238"/>
<path d="M100.82 141C101.198 143.424 100.64 145.902 99.2601 147.93C99.1201 147.86 99.7701 146.4 100.2 144.5C100.63 142.6 100.66 141 100.82 141Z" fill="#455A64"/>
<path d="M103.29 138.63C103.465 139.791 103.401 140.975 103.1 142.11C102.967 143.278 102.6 144.407 102.02 145.43C102.106 144.278 102.297 143.137 102.59 142.02C102.715 140.87 102.949 139.735 103.29 138.63Z" fill="#455A64"/>
<path d="M110.37 130.77C110.37 130.84 109.84 131.26 109.1 132.12C108.158 133.254 107.414 134.538 106.9 135.92C106.394 137.316 105.986 138.747 105.68 140.2C105.595 140.821 105.423 141.427 105.17 142C105.126 141.373 105.177 140.742 105.32 140.13C105.526 138.628 105.895 137.153 106.42 135.73C106.946 134.289 107.767 132.975 108.83 131.87C109.245 131.382 109.774 131.004 110.37 130.77Z" fill="#455A64"/>
<path d="M113.23 125.42C113.29 125.42 113.5 125.88 113.62 126.71C113.775 127.794 113.717 128.898 113.45 129.96C113.179 131.021 112.711 132.022 112.07 132.91C111.56 133.58 111.16 133.91 111.07 133.91C111.844 132.658 112.458 131.314 112.9 129.91C113.198 128.433 113.309 126.925 113.23 125.42Z" fill="#455A64"/>
<path d="M88.84 137.31C88.77 137.44 88.15 137.22 87.44 136.83C86.73 136.44 86.23 136.02 86.3 135.89C86.37 135.76 86.99 135.98 87.7 136.38C88.41 136.78 88.91 137.19 88.84 137.31Z" fill="#455A64"/>
<path d="M98.71 132.23C98.85 132.23 98.71 133.23 98.13 134.3C97.55 135.37 96.65 135.89 96.57 135.78C96.49 135.67 97.11 134.99 97.69 134.03C98.27 133.07 98.57 132.19 98.71 132.23Z" fill="#455A64"/>
<path d="M101.75 130.6C101.73 131.502 101.409 132.371 100.84 133.07C100.02 134.32 98.9903 134.98 98.9103 134.87C98.8303 134.76 99.6403 133.95 100.41 132.79C101.18 131.63 101.6 130.55 101.75 130.6Z" fill="#455A64"/>
<path d="M116.84 110.65C116.84 110.65 116.45 110.36 115.71 109.94C114.657 109.378 113.484 109.076 112.29 109.06C110.528 109.019 108.792 109.488 107.29 110.41C105.473 111.596 103.997 113.237 103.01 115.17C102.268 116.592 101.684 118.091 101.27 119.64L101.19 119.94L100.92 119.79C99.5101 119.057 97.9495 118.66 96.3604 118.63C95.1003 118.596 93.8442 118.785 92.6504 119.19C91.5996 119.585 90.594 120.092 89.6504 120.7C89.8453 120.467 90.0746 120.264 90.3304 120.1C91.0176 119.595 91.7714 119.188 92.5704 118.89C93.7914 118.431 95.0858 118.197 96.3904 118.2C98.0558 118.197 99.6978 118.592 101.18 119.35L100.83 119.51C101.234 117.919 101.825 116.382 102.59 114.93C103.597 112.925 105.119 111.223 107 110C108.594 109.047 110.436 108.591 112.29 108.69C113.533 108.747 114.741 109.118 115.8 109.77C116.081 109.949 116.343 110.157 116.58 110.39C116.77 110.55 116.85 110.64 116.84 110.65Z" fill="#455A64"/>
<path d="M127.58 113.24C127.58 113.24 128.15 113.09 128.75 113.77C128.926 113.975 129.058 114.214 129.139 114.472C129.22 114.73 129.247 115.001 129.22 115.27C129.172 115.635 129.036 115.984 128.823 116.285C128.611 116.586 128.328 116.832 128 117C127.248 117.428 126.36 117.55 125.52 117.34C124.592 117.105 123.721 116.683 122.96 116.1C122.162 115.48 121.327 114.909 120.46 114.39C119.523 113.881 118.51 113.523 117.46 113.33C115.404 112.957 113.287 113.102 111.3 113.75C109.673 114.286 108.135 115.065 106.74 116.06C105.478 117.023 104.266 118.051 103.11 119.14C103.341 118.777 103.613 118.441 103.92 118.14C104.715 117.274 105.589 116.484 106.53 115.78C107.927 114.711 109.487 113.873 111.15 113.3C113.209 112.604 115.412 112.442 117.55 112.83C118.66 113.03 119.731 113.408 120.72 113.95C121.604 114.485 122.453 115.076 123.26 115.72C123.967 116.278 124.775 116.692 125.64 116.94C126.377 117.143 127.164 117.057 127.84 116.7C128.118 116.563 128.36 116.363 128.547 116.117C128.735 115.871 128.863 115.584 128.92 115.28C128.988 114.838 128.886 114.387 128.636 114.016C128.386 113.646 128.005 113.383 127.57 113.28L127.58 113.24Z" fill="#455A64"/>
<path d="M75.3102 236.1C74.3902 240.1 69.8002 242.26 66.9702 245.3C64.1402 248.34 59.9702 250.83 55.9702 249.65C54.6838 249.183 53.5103 248.45 52.5264 247.499C51.5424 246.548 50.7702 245.4 50.2602 244.13C47.6102 238.35 46.4202 230.41 48.4002 224.37C50.3802 218.33 50.6902 213.9 53.2402 205.54L68.9402 211.61L72.2202 207.61C72.2202 207.61 76.0002 233.16 75.3102 236.1Z" fill="#EE8421"/>
<path d="M127.19 201.67C127.19 201.67 136.45 236.61 144.19 241.34C146.241 242.659 148.614 243.389 151.05 243.45C153.814 243.442 156.494 242.497 158.651 240.77C160.809 239.043 162.317 236.635 162.93 233.94L165.05 206.14L153.41 201.37L152.41 205.88L149.67 198.12L127.19 201.67Z" fill="#EE8421"/>
<path d="M134.55 227.08L134.46 204.44L153.62 209.16C153.62 209.16 148.62 182.46 140.4 174.61C134.4 168.94 112.16 163.61 112.16 163.61L83.2301 164.97C83.2301 164.97 84.0301 165.16 76.5602 168.51C69.7401 171.56 61.6202 175.62 58.9102 182.59L52.9102 206.78L66.2902 211.66L66.7402 212.75L68.8302 242.5C64.7302 257.09 71.0002 263 71.0002 263C71.0002 263 70.4002 270.92 71.0002 272.8C71.0002 272.8 116.27 273.8 127.19 272.8C136.11 271.97 137.41 271.72 137.41 271.72C138.505 268.225 138.266 264.449 136.74 261.12L134.55 227.08Z" fill="#EE8421"/>
<path d="M126.45 242.59C126.272 242.503 126.104 242.396 125.95 242.27L124.59 241.27C124 240.84 123.28 240.27 122.48 239.63C121.68 238.99 120.73 238.24 119.75 237.36C117.75 235.65 115.47 233.51 113.04 231.03C110.61 228.55 108.09 225.66 105.6 222.52C103.11 219.38 100.95 216.21 99.0903 213.28C97.2303 210.35 95.7003 207.61 94.5203 205.28C93.8903 204.12 93.4003 203.04 92.9503 202.1C92.5003 201.16 92.1403 200.34 91.8503 199.66L91.2003 198.1C91.113 197.922 91.0491 197.734 91.0103 197.54C91.1289 197.7 91.2263 197.875 91.3003 198.06L92.0403 199.58C92.3503 200.24 92.7303 201.05 93.2103 201.97C93.6903 202.89 94.2103 203.97 94.8403 205.11C96.0703 207.42 97.6403 210.11 99.4903 213.04C101.34 215.97 103.55 219.04 106.01 222.22C108.47 225.4 111.01 228.22 113.39 230.71C115.77 233.2 118.04 235.37 120 237.1C121 237.99 121.88 238.74 122.66 239.42C123.44 240.1 124.14 240.67 124.71 241.13L126.02 242.21C126.175 242.323 126.319 242.45 126.45 242.59Z" fill="#263238"/>
<path d="M131.63 253.21C131.467 253.228 131.303 253.228 131.14 253.21L129.74 253.06C128.53 252.95 126.74 252.67 124.64 252.28C119.056 251.2 113.664 249.296 108.64 246.63C103.671 243.822 98.948 240.601 94.5201 237C92.8201 235.65 91.4501 234.54 90.5201 233.76L89.4501 232.85C89.32 232.751 89.2024 232.637 89.1001 232.51C89.1001 232.51 89.2501 232.58 89.5201 232.77L90.6501 233.6L94.7601 236.71C99.2183 240.193 103.928 243.341 108.85 246.13C113.849 248.77 119.19 250.705 124.72 251.88C126.85 252.31 128.58 252.65 129.78 252.82L131.16 253.07C131.323 253.093 131.481 253.14 131.63 253.21Z" fill="#263238"/>
<path d="M133.69 262.14C133.486 262.212 133.275 262.259 133.06 262.28L131.25 262.56C129.68 262.8 127.39 263.1 124.57 263.42C117.201 264.24 109.795 264.688 102.38 264.76C93.69 264.82 85.83 264.37 80.16 263.92C77.33 263.7 75.03 263.49 73.45 263.32L71.63 263.12C71.4167 263.1 71.2057 263.06 71 263C71.2125 262.974 71.4275 262.974 71.64 263L73.47 263.11L80.19 263.55C85.86 263.89 93.7 264.29 102.37 264.23C111.04 264.17 118.87 263.59 124.53 263.04C127.36 262.77 129.65 262.53 131.22 262.35L133.05 262.16C133.263 262.14 133.476 262.133 133.69 262.14Z" fill="#263238"/>
<path d="M71.0002 270.56C70.9832 270.387 70.9832 270.213 71.0002 270.04C71.0002 269.65 71.0002 269.15 71.0002 268.52C71.0002 267.15 71.0002 265.22 70.9202 262.82V262.91C70.1291 261.621 69.4178 260.286 68.7902 258.91C68.0144 257.273 67.4563 255.542 67.1302 253.76C66.9229 251.717 66.9935 249.654 67.3402 247.63C67.6502 245.5 68.0702 243.3 68.6302 241.05V241.12C68.5102 238.7 68.3402 236.18 68.1502 233.61C67.3402 223.17 66.4102 213.73 65.7702 206.89C65.4602 203.52 65.2002 200.77 65.0202 198.8C64.9402 197.88 64.8802 197.15 64.8402 196.6C64.8137 196.341 64.8137 196.079 64.8402 195.82C64.9066 196.072 64.9501 196.33 64.9702 196.59C65.0402 197.14 65.1302 197.87 65.2502 198.78L66.1602 206.86C66.9002 213.68 67.8902 223.12 68.7002 233.57C68.8902 236.15 69.0502 238.67 69.1702 241.1V241.17C68.6202 243.4 68.1702 245.6 67.8702 247.7C67.5174 249.68 67.4333 251.698 67.6202 253.7C67.9278 255.446 68.4553 257.146 69.1902 258.76C69.7796 260.131 70.4473 261.466 71.1902 262.76C71.1902 265.16 71.1302 267.09 71.1202 268.46C71.1202 269.09 71.1202 269.59 71.0702 269.98C71.0764 270.176 71.0528 270.371 71.0002 270.56Z" fill="#263238"/>
<path d="M133.69 190.3C133.729 190.464 133.749 190.632 133.75 190.8C133.75 191.18 133.8 191.66 133.83 192.23C133.83 193.56 133.95 195.35 134.03 197.53C134.17 201.99 134.33 208.17 134.48 214.99C134.63 221.81 134.73 227.99 134.77 232.46C134.77 234.64 134.77 236.46 134.77 237.76C134.77 238.33 134.77 238.81 134.77 239.2C134.786 239.366 134.786 239.534 134.77 239.7C134.724 239.537 134.7 239.369 134.7 239.2C134.7 238.81 134.65 238.33 134.62 237.76C134.62 236.43 134.51 234.64 134.43 232.47C134.28 228 134.12 221.82 133.98 215C133.84 208.18 133.73 202 133.68 197.53C133.68 195.36 133.68 193.53 133.68 192.24C133.68 191.66 133.68 191.19 133.68 190.8C133.653 190.634 133.657 190.465 133.69 190.3Z" fill="#263238"/>
<path d="M82.2602 167.42C82.2602 167.42 77.4602 152.72 77.0102 142.88C76.5856 134.219 79.2506 125.689 84.5302 118.81C87.41 115.008 91.0859 111.882 95.3008 109.65C99.5156 107.419 104.167 106.135 108.93 105.89C116.48 105.38 118.55 106.12 121.02 110.51C129.93 126.4 130.53 140.31 127.25 150.73C123.97 161.15 121.52 167.48 121.52 167.48L82.2602 167.42Z" fill="#EE8421"/>
<path d="M121.52 164.5C121.065 164.771 120.582 164.992 120.08 165.16C119.511 165.401 118.926 165.604 118.33 165.77C117.554 166.032 116.763 166.245 115.96 166.41C113.877 166.893 111.761 167.228 109.63 167.41C107.025 167.602 104.411 167.656 101.8 167.57C97.0581 167.378 92.3376 166.823 87.6802 165.91C85.9002 165.57 84.4602 165.22 83.4802 164.97C82.9633 164.866 82.4576 164.711 81.9702 164.51C82.4929 164.556 83.0112 164.643 83.5202 164.77C84.5202 164.96 85.9602 165.25 87.7502 165.55C92.3996 166.353 97.0961 166.854 101.81 167.05C104.58 167.14 107.21 167.05 109.59 166.93C111.703 166.776 113.804 166.485 115.88 166.06C116.679 165.915 117.471 165.728 118.25 165.5C118.842 165.363 119.426 165.196 120 165C120.493 164.795 121.002 164.628 121.52 164.5Z" fill="#263238"/>
<path d="M103.21 108C103.21 108.06 102.41 108.34 101.04 109.07C99.1048 110.09 97.3126 111.361 95.7102 112.85C94.6167 113.886 93.6131 115.014 92.7102 116.22C91.686 117.613 90.8081 119.107 90.0901 120.68C89.2981 122.414 88.7302 124.242 88.4001 126.12C88.0614 128.141 87.9408 130.193 88.0401 132.24C88.3435 136.207 89.0607 140.132 90.1801 143.95C91.1801 147.5 92.1102 150.68 92.7702 153.39C93.3125 155.528 93.7364 157.695 94.0401 159.88C94.1201 160.66 94.1602 161.26 94.1902 161.67C94.2143 161.879 94.2143 162.091 94.1902 162.3C94.1317 162.097 94.0915 161.89 94.0702 161.68C94.0002 161.22 93.9202 160.68 93.8102 159.91C93.5302 158.38 93.1401 156.16 92.4001 153.48C91.6601 150.8 90.7002 147.63 89.7002 144.08C88.5346 140.233 87.7969 136.269 87.5002 132.26C87.4023 130.176 87.5297 128.087 87.8802 126.03C88.2228 124.111 88.8144 122.246 89.6402 120.48C90.3785 118.882 91.2836 117.367 92.3401 115.96C93.2771 114.745 94.3176 113.615 95.4502 112.58C97.0972 111.098 98.9455 109.855 100.94 108.89C101.478 108.622 102.033 108.389 102.6 108.19C102.795 108.101 103 108.037 103.21 108Z" fill="#263238"/>
<path d="M117.3 152.71C116.844 152.518 116.408 152.28 116 152C115.6 151.74 115.1 151.43 114.51 151.1C113.92 150.77 113.27 150.35 112.51 149.97C110.76 149.022 108.957 148.174 107.11 147.43C102.594 145.596 97.8456 144.394 93.0002 143.86C91.0071 143.652 89.0042 143.552 87.0002 143.56C86.1502 143.56 85.3802 143.56 84.7102 143.61C84.0402 143.66 83.4502 143.67 82.9702 143.71C82.4782 143.761 81.9823 143.761 81.4902 143.71C81.969 143.586 82.4574 143.502 82.9502 143.46C83.4302 143.39 84.0102 143.31 84.6902 143.27C85.3702 143.23 86.1402 143.14 87.0002 143.14C89.0025 143.076 91.0067 143.142 93.0002 143.34C97.9271 143.834 102.751 145.068 107.31 147C109.166 147.768 110.97 148.657 112.71 149.66C113.47 150.06 114.11 150.5 114.71 150.86C115.31 151.22 115.76 151.55 116.15 151.86C116.554 152.114 116.939 152.398 117.3 152.71Z" fill="#263238"/>
<g opacity="0.3">
<path d="M83.3804 143.49C92.1704 148.57 102.81 150.56 112.94 149.94C96.7004 142.52 93.0104 143.36 83.3804 143.49Z" fill="black"/>
</g>
<path d="M134.55 183.65C134.314 183.63 134.08 183.59 133.85 183.53L131.85 183.09C130.99 182.89 129.93 182.65 128.69 182.41C127.45 182.17 126.06 181.85 124.5 181.6C121.39 181.02 117.66 180.46 113.5 179.97C109.34 179.48 104.75 179.17 99.9304 179.03C95.1104 178.89 90.5004 179.03 86.3204 179.25C82.1404 179.47 78.4004 179.86 75.2604 180.25C73.6804 180.42 72.2604 180.66 71.0304 180.84C69.8004 181.02 68.7104 181.19 67.8404 181.35L65.8404 181.68C65.6071 181.731 65.3692 181.758 65.1304 181.76C65.3537 181.674 65.5847 181.611 65.8204 181.57L67.8204 181.15C68.6804 180.96 69.7504 180.75 70.9904 180.55C72.2304 180.35 73.6404 180.08 75.2204 179.88C78.3604 179.42 82.1204 179.02 86.3004 178.74C90.4804 178.46 95.1104 178.36 99.9504 178.48C104.79 178.6 109.39 178.99 113.56 179.48C117.73 179.97 121.46 180.59 124.56 181.22C126.12 181.5 127.56 181.84 128.75 182.11C129.94 182.38 131.03 182.64 131.89 182.88L133.89 183.41C134.119 183.465 134.34 183.546 134.55 183.65Z" fill="#263238"/>
<path d="M159.15 229.12C159.1 229.12 159.15 228.53 159.15 227.46C159.144 225.957 158.983 224.46 158.67 222.99C158.2 220.81 157.53 218.678 156.67 216.62C156.2 215.45 155.67 214.24 155.1 212.98C154.53 211.72 154.1 210.35 153.6 208.98C151.8 203.4 150.49 198.26 149.45 194.57C148.96 192.79 148.54 191.32 148.23 190.2C148.045 189.676 147.905 189.137 147.81 188.59C147.886 188.712 147.946 188.843 147.99 188.98C148.1 189.25 148.25 189.63 148.42 190.14C148.78 191.14 149.25 192.64 149.81 194.47C150.93 198.14 152.3 203.26 154.09 208.82C154.56 210.2 155.02 211.55 155.56 212.82C156.1 214.09 156.65 215.31 157.12 216.49C157.992 218.581 158.661 220.751 159.12 222.97C159.41 224.468 159.518 225.996 159.44 227.52C159.419 227.932 159.372 228.343 159.3 228.75C159.2 229 159.17 229.13 159.15 229.12Z" fill="#263238"/>
<g opacity="0.3">
<path d="M68.7 240.76C63.63 227.69 62.09 213.1 65.18 199.42L68.7 240.76Z" fill="black"/>
</g>
<g opacity="0.3">
<path d="M134.45 224.76C136.83 219.76 136.83 214.34 136.45 208.76C135.916 203.192 134.912 197.679 133.45 192.28L134.45 224.76Z" fill="black"/>
</g>
<g opacity="0.3">
<path d="M159.25 228.76C160.49 227.063 161.066 224.972 160.87 222.88C160.663 220.805 160.116 218.777 159.25 216.88C157.71 213.173 155.718 209.67 153.32 206.45C153.37 210.63 155.89 214.31 157.32 218.23C158.526 221.633 159.129 225.22 159.1 228.83" fill="black"/>
</g>
<g opacity="0.3">
<path d="M127.19 263C121.183 265.141 114.848 266.217 108.47 266.18C96.7302 265.86 84.7802 266.55 73.4702 263.52C91.365 264.68 109.321 264.506 127.19 263Z" fill="black"/>
</g>
<g opacity="0.3">
<path d="M128 253C121.13 253.844 114.162 252.689 107.932 249.673C101.701 246.658 96.4717 241.911 92.8701 236C92.8701 236 103.23 244.5 111.94 248C117.154 250.086 122.524 251.758 128 253Z" fill="black"/>
</g>
</svg>
